<?xml version="1.0" encoding="UTF-8" standalone="no"?>
<svg
   xmlns:dc="http://purl.org/dc/elements/1.1/"
   xmlns:cc="http://creativecommons.org/ns#"
   xmlns:rdf="http://www.w3.org/1999/02/22-rdf-syntax-ns#"
   xmlns:svg="http://www.w3.org/2000/svg"
   xmlns="http://www.w3.org/2000/svg"
   xmlns:sodipodi="http://sodipodi.sourceforge.net/DTD/sodipodi-0.dtd"
   xmlns:inkscape="http://www.inkscape.org/namespaces/inkscape"
   height="26.469999"
   width="29.990198"
   id="Layer_1"
   data-name="Layer 1"
   viewBox="0 0 29.990198 26.469999"
   version="1.1"
   sodipodi:docname="rootstalk_leaf.svg"
   inkscape:version="1.0rc1 (09960d6, 2020-04-09)">
  <metadata
     id="metadata844">
    <rdf:RDF>
      <cc:Work
         rdf:about="">
        <dc:format>image/svg+xml</dc:format>
        <dc:type
           rdf:resource="http://purl.org/dc/dcmitype/StillImage" />
        <dc:title>rootstalk_leafArtboard 1</dc:title>
      </cc:Work>
    </rdf:RDF>
  </metadata>
  <sodipodi:namedview
     fit-margin-left="2"
     fit-margin-bottom="2"
     fit-margin-right="2"
     fit-margin-top="2"
     inkscape:document-rotation="0"
     pagecolor="#ffffff"
     bordercolor="#666666"
     borderopacity="1"
     objecttolerance="10"
     gridtolerance="10"
     guidetolerance="10"
     inkscape:pageopacity="0"
     inkscape:pageshadow="2"
     inkscape:window-width="820"
     inkscape:window-height="480"
     id="namedview842"
     showgrid="false"
     inkscape:zoom="6.68"
     inkscape:cx="13.558915"
     inkscape:cy="19.067349"
     inkscape:window-x="293"
     inkscape:window-y="72"
     inkscape:window-maximized="0"
     inkscape:current-layer="Layer_1" />
  <defs
     id="defs835">
    <style
       id="style833">.cls-1{fill:#231f20;}</style>
    <clipPath
       clipPathUnits="userSpaceOnUse"
       id="clipPath848">
      <rect
         style="fill:none;stroke:#000011;stroke-width:0.377953;stroke-miterlimit:4;stroke-dasharray:none;stroke-opacity:1"
         id="rect850"
         width="27.844311"
         height="24.101797"
         x="22.754492"
         y="21.407187" />
    </clipPath>
    <clipPath
       id="clipPath844"
       clipPathUnits="userSpaceOnUse">
      <rect
         y="20.808384"
         x="23.053892"
         height="24.7006"
         width="27.544909"
         id="rect846"
         style="fill:none;stroke:#000011;stroke-width:0.377953" />
    </clipPath>
  </defs>
  <title
     id="title837">rootstalk_leafArtboard 1</title>
  <path
     transform="translate(-21.914965,-20.44)"
     inkscape:connector-curvature="0"
     class="cls-1"
     d="m 24.8,28.5 h -0.13 a 4,4 0 0 0 -0.13,0.9 c 0,0.88 0.11,1.76 0.17,2.64 a 4.57,4.57 0 0 0 0.07,0.83 c 0.2,0.79 0.39,1.59 0.66,2.36 a 13,13 0 0 0 1,2.34 4.65,4.65 0 0 0 1.31,1.51 6.89,6.89 0 0 0 2.29,1 c 0.57,0.14 1.12,0.35 1.68,0.53 0,-0.06 0,-0.09 0,-0.11 L 31.64,40.42 A 11.36,11.36 0 0 1 29.33,38.76 2.89,2.89 0 0 0 28.93,38.38 7.92,7.92 0 0 1 27,36.13 13.73,13.73 0 0 1 25.6,33 4.49,4.49 0 0 1 25.18,31.27 1.89,1.89 0 0 0 25.11,30.88 c -0.07,-0.45 -0.13,-0.91 -0.19,-1.37 l -0.12,-1 m 7.54,12 0.09,-0.1 a 6,6 0 0 1 -0.39,-0.49 c -0.47,-0.75 -0.94,-1.5 -1.39,-2.26 a 5.31,5.31 0 0 1 -0.2,-0.56 c -0.39,-0.9 -0.83,-1.8 -1.19,-2.72 a 6.75,6.75 0 0 0 -0.84,-1.73 c -0.29,-0.39 -0.49,-0.85 -0.78,-1.24 -0.58,-0.83 -1.2,-1.65 -1.8,-2.46 -0.07,-0.1 -0.16,-0.19 -0.31,-0.36 a 2.07,2.07 0 0 0 -0.05,0.41 22.71,22.71 0 0 0 0.35,2.75 13.82,13.82 0 0 0 2,4.58 8,8 0 0 0 0.93,1.22 c 0.73,0.67 1.52,1.28 2.27,1.92 0.33,0.27 0.62,0.57 0.94,0.84 a 1.79,1.79 0 0 0 0.39,0.2 M 48.88,28.08 a 1.27,1.27 0 0 0 -0.21,0.07 c -0.79,0.37 -1.57,0.78 -2.37,1.11 -1.23,0.51 -2.49,1 -3.73,1.46 a 11.2,11.2 0 0 0 -3.65,2.21 c -0.23,0.21 -0.37,0.52 -0.59,0.74 a 14.45,14.45 0 0 0 -2,2.57 7.62,7.62 0 0 0 -1,2.16 7.09,7.09 0 0 0 0.1,3.14 c 0,0.25 0.12,0.49 0.19,0.76 0.33,-0.22 0.33,-0.25 0.26,-0.55 a 4.9,4.9 0 0 1 0.82,-4.14 16.38,16.38 0 0 1 4.11,-4.15 c 1.17,-0.8 2.38,-1.54 3.61,-2.22 1.08,-0.59 2.22,-1.06 3.33,-1.6 a 3.23,3.23 0 0 0 1.17,-1.41 c 0,0 0,-0.07 0,-0.15 M 37.55,40.69 c 1.31,-0.52 2.58,-1 3.82,-1.52 a 14.92,14.92 0 0 0 5.35,-3.34 8.14,8.14 0 0 0 2.54,-5.25 c 0,-0.11 0,-0.23 0,-0.35 a 0.54,0.54 0 0 0 -0.25,0.25 8.36,8.36 0 0 1 -2.17,2.66 c -0.86,0.73 -1.77,1.39 -2.67,2.06 -0.36,0.27 -0.75,0.49 -1.12,0.75 -0.76,0.53 -1.49,1.09 -2.26,1.6 a 16,16 0 0 0 -3.22,3.14 m -2.84,1.06 0.13,-0.09 c -0.22,-0.49 -0.42,-1 -0.65,-1.49 a 9.7,9.7 0 0 1 -0.51,-1 c -0.37,-1 -0.71,-2.12 -1.06,-3.18 -0.07,-0.2 -0.15,-0.4 -0.2,-0.6 a 7.53,7.53 0 0 0 -1.2,-2.62 c -0.45,-0.56 -0.89,-1.12 -1.38,-1.64 -0.49,-0.52 -1,-1 -1.53,-1.49 a 12.42,12.42 0 0 1 -2.26,-2.75 c 0,-0.05 -0.1,-0.08 -0.19,-0.15 a 0.84,0.84 0 0 0 -0.1,0.31 4.31,4.31 0 0 0 0.29,1.15 9.61,9.61 0 0 0 1.06,1.62 17.59,17.59 0 0 1 3,5.21 c 0.29,0.81 0.68,1.58 1,2.37 a 4.57,4.57 0 0 0 0.35,0.74 c 0.36,0.54 0.75,1.05 1.12,1.58 a 0.42,0.42 0 0 1 0.1,0.17 1.16,1.16 0 0 0 0.59,0.76 c 0.18,0.13 0.33,0.3 0.51,0.44 0.18,0.14 0.48,0.57 0.87,0.61 m -0.2,-2.1 h 0.09 c 0,-0.09 0,-0.17 0.06,-0.25 l 0.15,-1.33 A 9,9 0 0 0 34.89,36.76 13.35,13.35 0 0 0 34.25,33 6.09,6.09 0 0 0 33.47,31.59 C 33.19,31.17 32.82,30.82 32.53,30.41 A 3.9,3.9 0 0 0 31.07,29 0.44,0.44 0 0 1 30.92,28.88 l -1.75,-1.56 a 11.64,11.64 0 0 1 -2.3,-2.6 c -0.11,-0.18 -0.27,-0.2 -0.38,0 a 1.41,1.41 0 0 0 -0.24,0.6 3.48,3.48 0 0 0 1.22,2.68 c 0.62,0.63 1.27,1.23 1.9,1.85 l 0.08,0.08 c 0.65,0.73 1.28,1.48 2,2.18 a 8.53,8.53 0 0 1 1.46,2.7 c 0.21,0.51 0.33,1.06 0.5,1.58 0.26,0.81 0.51,1.62 0.78,2.42 0.1,0.28 0.24,0.54 0.36,0.82 m 14.21,-9.84 h -0.1 c -0.64,0.32 -1.27,0.64 -1.92,0.95 -0.41,0.2 -0.85,0.37 -1.27,0.56 a 32,32 0 0 0 -4.47,2.61 5.19,5.19 0 0 0 -0.85,0.7 c -0.81,0.85 -1.6,1.72 -2.38,2.6 a 5.17,5.17 0 0 0 -1.43,3.48 5.61,5.61 0 0 1 -0.06,0.59 h 0.09 a 2.08,2.08 0 0 0 0.21,-0.21 c 0.44,-0.53 0.84,-1.09 1.3,-1.6 a 12,12 0 0 1 2.64,-2.38 c 0.49,-0.29 1,-0.6 1.43,-0.93 1.19,-0.87 2.36,-1.75 3.54,-2.62 A 10.33,10.33 0 0 0 48,31.08 c 0.27,-0.41 0.5,-0.85 0.75,-1.27 M 26.11,23.44 c 0.37,0 0.44,-0.23 0.52,-0.45 0.08,-0.22 0.38,-0.54 0.56,-0.41 0.18,0.13 0.15,0.46 0,0.65 -0.56,0.91 -0.2,0.93 0.21,1.46 0.41,0.53 0.8,1 1.23,1.41 0.43,0.41 0.65,0.58 1,0.87 l 1.73,1.52 a 13,13 0 0 1 1.19,1 13.82,13.82 0 0 1 1.28,1.66 8.88,8.88 0 0 1 1.27,3.1 c 0.09,0.45 0.15,0.91 0.23,1.37 0,0.2 0.09,0.4 0.13,0.6 h 0.11 a 5.32,5.32 0 0 0 0.36,-0.47 3.21,3.21 0 0 1 0.24,-0.45 21,21 0 0 1 2.87,-3.22 14.31,14.31 0 0 1 2.34,-1.42 c 1,-0.49 2.17,-0.84 3.24,-1.29 1.07,-0.45 2,-0.87 2.93,-1.3 a 9.9,9.9 0 0 0 0.93,-0.44 0.68,0.68 0 0 0 0.38,-0.83 c 0,-0.05 0,-0.14 0,-0.15 0,-0.01 0.29,-0.13 0.31,-0.1 0.19,0.27 0.9,-0.38 0.7,0.32 a 9.92,9.92 0 0 0 -0.05,2.55 8.3,8.3 0 0 1 -0.89,4.14 13,13 0 0 1 -1.36,2 11.21,11.21 0 0 1 -2.94,2.39 39.1,39.1 0 0 1 -4.52,2.05 c -0.73,0.28 -1.46,0.61 -2.17,0.95 a 2.52,2.52 0 0 0 -0.7,0.51 3.33,3.33 0 0 0 -1.08,1.58 c -0.05,0.22 -0.06,0.45 -0.1,0.66 a 7.47,7.47 0 0 1 -0.23,1 c 0,0.09 -0.19,0.14 -0.29,0.21 0,-0.11 -0.15,-0.22 -0.14,-0.32 a 1.76,1.76 0 0 0 -0.92,-1.9 C 34.17,42.5 33.91,42.23 33.61,42.01 a 4.78,4.78 0 0 0 -0.74,-0.46 15.91,15.91 0 0 0 -1.6,-0.67 C 30.71,40.68 30.12,40.58 29.56,40.39 29,40.2 28.61,40.01 28.14,39.8 27.87,39.68 27.62,39.54 27.37,39.4 a 1.4,1.4 0 0 1 -0.42,-0.3 7,7 0 0 1 -0.82,-1.06 13.53,13.53 0 0 1 -1,-1.9 16.4,16.4 0 0 1 -1,-3.28 1.47,1.47 0 0 1 0,-0.36 10.78,10.78 0 0 0 -0.18,-2.12 7.31,7.31 0 0 1 0.5,-3.46 c 0.25,-0.59 0.48,-1.2 0.73,-1.8 a 0.6,0.6 0 0 1 0.12,-0.24 0.89,0.89 0 0 0 0.19,-1 1.23,1.23 0 0 1 0.3,-1.25 1.3,1.3 0 0 1 0.43,-0.19 2.08,2.08 0 0 1 0,0.43 3.39,3.39 0 0 1 -0.13,0.5"
     id="path839"
     clip-path="url(#clipPath844)" />
</svg>
